<?xml version="1.0" standalone="no"?>
<!DOCTYPE svg PUBLIC "-//W3C//DTD SVG 20010904//EN"
 "http://www.w3.org/TR/2001/REC-SVG-20010904/DTD/svg10.dtd">
<svg version="1.0" xmlns="http://www.w3.org/2000/svg"
 width="150.000000pt" height="150.000000pt" viewBox="0 0 150.000000 150.000000"
 preserveAspectRatio="xMidYMid meet">

<g transform="translate(0.000000,150.000000) scale(0.100000,-0.100000)"
fill="#ff3131" stroke="none">
<path d="M660 1489 c-100 -13 -148 -27 -236 -70 -232 -114 -377 -319 -414
-588 -28 -208 55 -448 209 -602 83 -82 143 -123 242 -165 96 -41 178 -57 289
-57 210 0 382 74 535 228 257 260 279 685 50 978 -155 197 -428 309 -675 276z
m20 -594 c36 -63 68 -113 73 -112 4 1 36 52 70 112 57 101 65 110 95 113 21 2
32 -1 32 -10 0 -7 -32 -67 -70 -133 l-69 -120 55 -3 c50 -3 54 -5 54 -27 0
-24 -3 -25 -63 -25 -71 0 -77 -3 -70 -30 4 -16 16 -20 67 -22 54 -3 61 -5 64
-25 3 -21 -1 -22 -65 -25 l-68 -3 3 -52 2 -53 -35 0 -35 0 0 55 0 55 -69 0
c-67 0 -68 0 -63 25 4 24 8 25 68 25 61 0 64 1 64 25 0 23 -3 24 -67 27 -60 3
-68 5 -68 23 0 17 8 21 52 25 l53 5 -70 122 c-39 68 -70 127 -70 133 0 5 15
10 33 10 30 0 35 -6 97 -115z"/>
</g>
</svg>
